<?xml version="1.0" standalone="no"?>
<!DOCTYPE svg PUBLIC "-//W3C//DTD SVG 20010904//EN"
 "http://www.w3.org/TR/2001/REC-SVG-20010904/DTD/svg10.dtd">
<svg version="1.0" xmlns="http://www.w3.org/2000/svg"
 width="512.000000pt" height="512.000000pt" viewBox="0 0 512.000000 512.000000"
 preserveAspectRatio="xMidYMid meet">
<metadata>
Created by potrace 1.11, written by Peter Selinger 2001-2013
</metadata>
<g transform="translate(0.000000,512.000000) scale(0.100000,-0.100000)"
fill="#000000" stroke="none">
<path d="M0 2560 l0 -2560 2560 0 2560 0 0 2560 0 2560 -2560 0 -2560 0 0
-2560z m2480 1320 l0 -100 -307 -2 -308 -3 -3 -157 -3 -158 261 0 260 0 0
-105 0 -105 -260 0 -260 0 0 -185 0 -185 310 0 310 0 0 -100 0 -100 -420 0
-420 0 0 650 0 650 420 0 420 0 0 -100z m730 89 c221 -36 340 -185 328 -411
-5 -73 -11 -100 -37 -152 -73 -150 -211 -206 -503 -206 l-98 0 0 -260 0 -260
-120 0 -120 0 0 650 0 650 243 0 c133 0 271 -5 307 -11z m-975 -1474 c70 -19
115 -44 174 -99 44 -41 121 -150 121 -170 0 -11 -140 -86 -159 -86 -5 0 -19
20 -31 45 -58 120 -209 170 -336 111 -98 -46 -151 -150 -175 -346 -19 -160 7
-343 65 -459 105 -206 294 -214 423 -19 15 21 30 35 37 31 6 -3 46 -29 88 -56
l78 -49 -18 -30 c-9 -17 -42 -57 -73 -88 -178 -182 -489 -183 -667 -3 -131
133 -192 339 -179 606 3 71 15 155 26 200 55 210 194 363 374 412 70 18 179
18 252 0z m993 0 c77 -18 147 -55 214 -115 l48 -42 -38 -52 c-20 -28 -47 -65
-59 -81 l-22 -30 -31 37 c-17 21 -60 51 -97 70 -59 29 -77 33 -148 33 -62 0
-88 -4 -114 -20 -51 -30 -74 -67 -74 -118 0 -89 60 -142 288 -252 157 -76 257
-159 296 -247 32 -74 33 -208 0 -290 -59 -151 -228 -248 -434 -248 -130 0
-299 61 -391 143 l-48 42 37 65 c21 36 44 75 52 88 l14 23 46 -41 c99 -87 254
-134 366 -110 95 19 147 80 147 171 0 96 -50 144 -265 250 -172 84 -248 147
-296 244 -55 112 -43 244 30 341 97 129 284 183 479 139z"/>
<path d="M2902 3588 l3 -183 99 -3 c122 -3 196 11 237 46 79 66 80 203 3 273
-44 40 -85 49 -221 49 l-123 0 2 -182z"/>
</g>
</svg>
