<?xml version="1.0" standalone="no"?>
<!DOCTYPE svg PUBLIC "-//W3C//DTD SVG 20010904//EN"
 "http://www.w3.org/TR/2001/REC-SVG-20010904/DTD/svg10.dtd">
<svg version="1.0" xmlns="http://www.w3.org/2000/svg"
 width="197.000000pt" height="285.000000pt" viewBox="0 0 197.000000 285.000000"
 preserveAspectRatio="xMidYMid meet">
<metadata>
Created by potrace 1.15, written by Peter Selinger 2001-2017
</metadata>
<g transform="translate(0.000000,285.000000) scale(0.100000,-0.100000)"
fill="#f0f0f0" stroke="none">
<path d="M50 2195 l0 -655 425 0 425 0 0 105 0 105 -305 0 -305 0 0 180 0 180
255 0 255 0 0 110 0 110 -255 0 -255 0 0 155 0 155 310 0 310 0 0 105 0 105
-430 0 -430 0 0 -655z"/>
<path d="M1080 2195 l0 -655 125 0 125 0 0 264 0 264 178 4 c154 4 184 7 234
27 81 31 158 104 194 183 26 57 29 73 29 173 0 102 -2 115 -31 176 -38 81 -90
133 -169 170 -90 43 -144 49 -426 49 l-259 0 0 -655z m533 421 c105 -43 138
-188 65 -281 -34 -44 -80 -57 -220 -63 l-128 -5 0 182 0 181 125 0 c83 0 137
-5 158 -14z"/>
<path d="M406 1369 c-119 -28 -238 -121 -309 -240 -70 -119 -97 -242 -97 -446
0 -256 62 -437 190 -557 135 -126 362 -158 538 -76 68 32 176 130 205 186 l16
32 -88 56 c-49 31 -93 56 -98 56 -4 0 -17 -16 -28 -36 -27 -51 -110 -122 -157
-135 -181 -48 -329 177 -328 499 1 236 67 398 185 453 48 22 151 25 198 6 50
-22 96 -65 123 -118 13 -27 28 -49 32 -49 19 0 172 76 172 85 0 20 -70 129
-108 168 -50 52 -116 92 -181 111 -60 17 -200 20 -265 5z"/>
<path d="M1357 1359 c-108 -37 -188 -106 -231 -198 -32 -70 -29 -196 6 -272
51 -110 132 -176 333 -273 135 -65 188 -104 215 -155 46 -91 4 -201 -89 -233
-54 -18 -167 -12 -235 12 -66 22 -140 67 -176 105 -13 14 -28 25 -34 25 -11
-1 -106 -160 -106 -178 0 -14 74 -76 126 -107 23 -13 77 -36 120 -51 67 -23
96 -27 194 -27 138 0 215 19 300 74 110 71 163 176 163 324 1 123 -22 174
-117 261 -57 53 -98 79 -211 134 -184 90 -248 136 -270 195 -10 25 -15 55 -11
69 11 43 64 95 109 107 99 27 246 -16 310 -92 19 -21 38 -39 43 -39 5 0 35 37
67 83 l58 82 -51 46 c-102 93 -204 129 -360 129 -68 -1 -111 -6 -153 -21z"/>
</g>
</svg>
